<?xml version="1.0" encoding="UTF-8"?>
<!DOCTYPE svg PUBLIC "-//W3C//DTD SVG 1.1//EN" "http://www.w3.org/Graphics/SVG/1.1/DTD/svg11.dtd">
<svg version="1.1" xmlns="http://www.w3.org/2000/svg" xmlns:xlink="http://www.w3.org/1999/xlink" x="0" y="0" width="667" height="640" viewBox="0, 0, 667, 640">
  <g id="Background">
    <rect x="0" y="0" width="667" height="640" fill="#000000" fill-opacity="0"/>
  </g>
  <g id="Background"/>
  <g id="Logo">
    <path d="M66.571,515.077 C72.793,515.335 79.101,516.208 84.979,518.361 L84.978,518.306 L85.866,518.625 L163.341,443.045 L166.184,446.836 C170.213,452.285 174.477,457.261 178.978,462.237 L180.637,464.132 C181.822,465.316 182.769,466.501 183.954,467.686 L185.849,469.582 L187.745,471.477 L189.403,473.136 L191.299,475.031 L192.957,476.69 L195.09,478.585 L196.985,480.244 C232.999,510.807 278.015,528.102 325.401,529.287 C364.494,530.235 402.638,520.284 436.046,500.619 L441.969,506.779 C448.839,514.124 455.947,521.469 462.819,528.814 C421.593,555.349 373.734,568.617 324.452,567.433 C269.011,566.011 216.177,546.109 173.767,510.57 L174.002,510.096 L124.292,559.097 C126.133,564.892 126.866,570.967 126.943,577.028 C126.943,611.254 99.198,639 64.972,639 C30.746,639 3,611.254 3,577.028 C3,542.802 30.746,515.057 64.972,515.057 L66.571,515.077 z" fill="#FFFFFF"/>
    <path d="M540.294,195.455 C564.699,235.496 576.781,281.697 575.596,328.61 C574.176,385.945 552.615,440.676 514.706,483.56 L514.944,483.798 L545.507,516.256 C557.826,514.598 570.147,518.862 578.677,527.865 C593.13,543.266 592.655,567.433 577.255,582.123 C561.855,596.575 537.688,596.101 522.999,580.701 C514.469,571.697 510.915,559.14 513.284,547.057 C499.069,531.893 473.954,505.121 459.501,489.957 L456.422,486.64 L459.976,483.798 C469.215,476.453 477.745,468.397 485.563,459.393 C518.023,422.906 536.267,376.468 537.452,327.661 C538.399,290.701 529.632,254.45 511.863,222.465 L540.294,195.455 z" fill="#FFFFFF"/>
    <path d="M108.579,50.632 C119.471,50.471 129.679,54.769 137.279,62.538 C145.808,71.542 149.362,84.099 146.993,96.183 L205.752,157.784 L202.198,160.626 C192.957,167.971 184.428,176.027 176.609,185.031 C144.151,221.517 125.907,267.956 124.485,316.763 C123.537,353.723 132.304,389.974 150.074,422.196 L121.878,449.679 C97.238,409.401 84.919,363.2 86.339,315.815 C87.562,258.775 109.795,203.678 147.122,160.751 L114.77,126.983 C102.451,128.641 90.13,124.377 81.6,115.374 C67.149,99.974 67.622,75.806 83.022,61.117 C89.016,55.494 96.742,51.867 104.909,50.893 C106.127,50.748 107.355,50.719 108.579,50.632 z" fill="#FFFFFF"/>
    <path d="M603.003,1.416 C637.229,1.416 664.974,29.161 664.974,63.387 C664.974,97.613 637.229,125.359 603.003,125.359 C596.417,125.432 589.936,124.22 583.671,122.272 L583.653,122.34 L582.704,122.007 L498.594,201.853 L495.752,198.062 C491.251,192.139 486.275,186.215 481.062,180.765 L480.114,179.581 L477.508,176.975 L477.035,176.501 L475.376,174.842 L474.901,174.369 L472.769,172.237 L471.112,170.815 L469.453,169.393 L467.321,167.498 L465.661,166.076 L463.529,164.18 C427.753,134.091 382.974,117.032 336.063,115.847 C296.969,114.9 258.824,124.614 225.654,144.516 L198.644,116.321 C239.869,89.785 287.728,76.517 337.01,77.702 C392.451,79.123 445.285,99.025 487.697,134.801 L488.17,134.801 L543.87,81.922 C541.907,75.941 541.111,69.662 541.031,63.387 C541.031,29.161 568.777,1.416 603.003,1.416 z" fill="#FFFFFF"/>
    <path d="M332.896,139.756 C339.898,139.787 346.882,140.328 353.832,141.14 C453.815,153.697 524.656,244.914 512.337,344.898 C499.779,444.881 408.562,515.723 308.579,503.403 C208.594,490.845 137.753,399.628 150.074,299.645 C162.001,206.895 239.931,140.08 332.896,139.756 z M330.147,218.06 C289.672,221.299 260.383,251.917 259.355,292.596 C260.088,321.612 274.948,346.105 300.861,359.451 L286.779,425.667 L381.195,425.667 L367.132,359.44 C392.898,345.446 408.21,322.301 408.62,292.596 C408.071,250.616 375.585,219.015 333.987,217.963 L330.147,218.06 z M331.56,217.667 L331.324,217.667 L331.442,217.669 L331.56,217.667 z" fill="#FFFFFF"/>
  </g>
  <g id="Font"/>
</svg>
