<?xml version="1.0" encoding="UTF-8"?>
<svg width="100px" height="100px" viewBox="0 0 100 100" version="1.1" xmlns="http://www.w3.org/2000/svg" xmlns:xlink="http://www.w3.org/1999/xlink">
    <defs></defs>
    <g stroke="none" stroke-width="1" fill="none" fill-rule="evenodd">
        <g id="keycdn">
            <circle id="c" fill="#00A1D5" cx="50" cy="50" r="50"></circle>
            <g id="keycdn-icon-white" transform="translate(18.000000, 19.000000)" fill-rule="nonzero">
                <g id="Background" fill="#000000" fill-opacity="0">
                    <rect id="Rectangle-path" x="0" y="0" width="64.9736014" height="61.9323636"></rect>
                </g>
                <g id="Logo" transform="translate(0.292235, 0.096769)" fill="#FFFFFF">
                    <path d="M6.19255894,49.7468808 C6.79865452,49.7718473 7.4131275,49.8563269 7.98571345,50.0646712 L7.98561604,50.0593489 L8.07211762,50.0902183 L15.6190888,42.7763933 L15.8960302,43.1432457 C16.288502,43.6705418 16.7038654,44.1520659 17.1423155,44.63359 L17.3039215,44.8169679 C17.4193543,44.9315427 17.5116032,45.0462144 17.6270361,45.160886 L17.8116312,45.3443607 L17.9963238,45.5277385 L18.1578324,45.6882788 L18.342525,45.8716567 L18.5040336,46.032197 L18.7118127,46.2155748 L18.8964079,46.3761151 C22.4045927,49.3336758 26.7896776,51.0073012 31.4056283,51.1219728 C35.2137437,51.2137101 38.9294155,50.2507586 42.1837454,48.34779 L42.7607149,48.943889 C43.4299332,49.6546596 44.1223356,50.3654303 44.7917488,51.0762009 C40.7758542,53.6439748 36.1138278,54.9279101 31.3131846,54.8133352 C25.9125827,54.6757292 20.7659332,52.7498263 16.6347031,49.3107415 L16.6575949,49.2648728 L11.8152595,54.0066662 C11.9945944,54.5674444 12.0659972,55.155318 12.0734979,55.7418368 C12.0734979,59.0538635 9.37081036,61.738825 6.03679764,61.738825 C2.70278492,61.738825 0,59.0538635 0,55.7418368 C0,52.4298101 2.70278492,49.7449454 6.03679764,49.7449454 L6.19255894,49.7468808 Z" id="Shape"></path>
                    <path d="M52.3387199,18.8172778 C54.7160524,22.692018 55.8929805,27.1628573 55.7775476,31.7025963 C55.639223,37.2508652 53.5389294,42.5471467 49.8461494,46.6970022 L49.8693334,46.7200333 L52.8465271,49.8609718 C54.0465418,49.7005283 55.2467513,50.1131527 56.0776731,50.9843668 C57.4855643,52.4747111 57.4392938,54.8133352 55.9391536,56.2348765 C54.4390135,57.6333867 52.084865,57.587518 50.6539846,56.0972705 C49.8230629,55.2259596 49.4768617,54.0108272 49.70763,52.8415636 C48.3229227,51.3741536 45.876428,48.7834455 44.4685367,47.3160355 L44.1686061,46.9950517 L44.5148073,46.7200333 C45.414794,46.0092626 46.2457157,45.229689 47.0072804,44.3583781 C50.169264,40.827556 51.946443,36.3337824 52.0618759,31.6107622 C52.1541248,28.0341682 51.3001164,24.5261837 49.569208,21.4310171 L52.3387199,18.8172778 Z" id="Shape"></path>
                    <path d="M10.2846295,4.8028548 C11.3456377,4.78727494 12.3400163,5.20318947 13.0803452,5.9549903 C13.9111695,6.82630124 14.2573707,8.04143357 14.0266024,9.21079401 L19.7504162,15.1718808 L19.4042151,15.4468992 C18.5040336,16.1576698 17.6732092,16.9372435 16.9115472,17.8085544 C13.7497583,21.3392797 11.9725794,25.8331501 11.8340599,30.5561702 C11.7417136,34.1327642 12.595722,37.6407488 14.3267278,40.7588497 L11.5801076,43.4183609 C9.17988343,39.5206863 7.97986875,35.049847 8.11819335,30.4644329 C8.23732786,24.944711 10.4030821,19.6130119 14.0391685,15.4589953 L10.8877053,12.191289 C9.6876906,12.3517325 8.48748109,11.9391082 7.65655933,11.067894 C6.2488629,9.5776465 6.29493864,7.23892562 7.79507876,5.8174811 C8.37896446,5.27334723 9.13156723,4.92236491 9.92712855,4.82811159 C10.045776,4.81408004 10.1653976,4.81127373 10.2846295,4.8028548 Z" id="Shape"></path>
                    <path d="M58.44731,0.0402560364 C61.7813227,0.0402560364 64.4840102,2.72512077 64.4840102,6.03714745 C64.4840102,9.34917414 61.7813227,12.0341356 58.44731,12.0341356 C57.8057566,12.0411998 57.1744314,11.9239154 56.5641471,11.7354088 L56.5623937,11.7419891 L56.46995,11.7097649 L48.2766522,19.4364079 L47.9998082,19.0695554 C47.5613581,18.4963907 47.0766375,17.9231293 46.5688303,17.3957365 L46.476484,17.2811616 L46.2226292,17.0289808 L46.1765534,16.9831121 L46.0149474,16.8225718 L45.9686769,16.7767999 L45.7609951,16.5704877 L45.599584,16.4328818 L45.437978,16.2952758 L45.2302962,16.1118979 L45.0685928,15.974292 L44.8609111,15.7908173 C41.3759102,12.8791253 37.0139119,11.2283375 32.4442318,11.1136659 C28.6360189,11.0220253 24.9202498,11.9620425 21.6891038,13.8879455 L19.0580139,11.1595345 C23.0738111,8.59166391 27.7358374,7.3077286 32.5364807,7.42240024 C37.9370825,7.55990944 43.0837321,9.48581241 47.2151569,12.9478315 L47.2612327,12.9478315 L52.6870642,7.83076677 C52.495845,7.25198947 52.4183053,6.64437493 52.4105123,6.03714745 C52.4105123,2.72512077 55.1132973,0.0402560364 58.44731,0.0402560364 Z" id="Shape"></path>
                    <path d="M32.1357289,13.4273235 C32.8178056,13.4303234 33.4981289,13.4826756 34.1751402,13.5612523 C43.9146538,14.7763846 50.8153958,23.6033915 49.6153811,33.278775 C48.3920851,42.9540617 39.5064824,49.8093938 29.7669687,48.6171958 C20.0272603,47.4019667 13.1265183,38.5749598 14.3267278,28.899673 C15.4885571,19.9243188 23.0798506,13.4586768 32.1357289,13.4273235 Z M31.8679442,21.0047482 C27.9252058,21.318184 25.0721146,24.281067 24.9719754,28.2175461 C25.0433782,31.0254046 26.490916,33.3955756 29.0151453,34.6870589 L27.6433938,41.094736 L36.8406165,41.094736 L35.4707158,34.6859944 C37.9806255,33.3318046 39.4721934,31.0920787 39.5121322,28.2175461 C39.4586532,24.1551701 36.2941368,21.0971629 32.2420051,20.9953616 L31.8679442,21.0047482 Z M32.0185341,20.9667179 L31.9825978,20.9667179 L32.0005659,20.9670224 L32.0185341,20.9667179 Z" id="Shape"></path>
                </g>
            </g>
        </g>
    </g>
</svg>